<svg xmlns="http://www.w3.org/2000/svg" xmlns:xlink="http://www.w3.org/1999/xlink" viewBox="0 0 128 128" fill="#73F9D9">
  <path
    d="M64 2C29.8 2 2 29.8 2 64C2 74.5 4.5992188 84.800391 9.6992188 93.900391L4.4003906 113.30078C3.5003906 116.40078 4.3992188 119.60039 6.6992188 121.90039C8.9992188 124.20039 12.200781 125.10078 15.300781 124.30078L35.5 119C44.3 123.6 54.099609 126 64.099609 126C98.299609 126 126.09961 98.2 126.09961 64C126.09961 47.4 119.7 31.899219 108 20.199219C96.2 8.4992187 80.6 2 64 2 z M 64 8C79 8 93.099609 13.800391 103.59961 24.400391C114.19961 35.000391 120.1 49.1 120 64C120 94.9 94.9 120 64 120C54.7 120 45.399219 117.59922 37.199219 113.19922C36.799219 112.99922 36.300781 112.80078 35.800781 112.80078C35.500781 112.80078 35.3 112.80039 35 112.90039L13.699219 118.5C12.199219 118.9 11.200781 118.09922 10.800781 117.69922C10.400781 117.29922 9.6 116.30078 10 114.80078L15.599609 94.199219C15.799609 93.399219 15.700781 92.600391 15.300781 91.900391C10.500781 83.500391 8 73.8 8 64C8 33.1 33.1 8 64 8 z M 64 17C38.1 17 17 38 17 64C17 72.3 19.200781 80.4 23.300781 87.5C24.900781 90.3 25.3 93.599219 24.5 96.699219L21.599609 107.19922L32.800781 104.30078C33.800781 104.00078 34.800781 103.90039 35.800781 103.90039C37.800781 103.90039 39.8 104.40039 41.5 105.40039C48.4 109.00039 56.1 111 64 111C89.9 111 111 89.9 111 64C111 51.4 106.09922 39.599219 97.199219 30.699219C88.399219 21.899219 76.6 17 64 17 z M 43.099609 36.699219L45.900391 36.699219C47.000391 36.699219 48.099219 36.799219 49.199219 39.199219C50.499219 42.099219 53.399219 49.399609 53.699219 50.099609C54.099219 50.799609 54.300781 51.699219 53.800781 52.699219C53.300781 53.699219 53.100781 54.299219 52.300781 55.199219C51.600781 56.099219 50.699609 57.100781 50.099609 57.800781C49.399609 58.500781 48.6 59.300781 49.5 60.800781C50.4 62.300781 53.299219 67.1 57.699219 71C63.299219 76 68.099609 77.600781 69.599609 78.300781C71.099609 79.000781 71.900781 78.900391 72.800781 77.900391C73.700781 76.900391 76.5 73.599609 77.5 72.099609C78.5 70.599609 79.500781 70.900391 80.800781 71.400391C82.200781 71.900391 89.400391 75.499219 90.900391 76.199219C92.400391 76.899219 93.399219 77.300391 93.699219 77.900391C94.099219 78.700391 94.100391 81.599609 92.900391 85.099609C91.700391 88.499609 85.700391 91.899609 82.900391 92.099609C80.200391 92.299609 77.699219 93.300391 65.199219 88.400391C50.199219 82.500391 40.7 67.099609 40 66.099609C39.3 65.099609 34 58.100781 34 50.800781C34 43.500781 37.799219 40 39.199219 38.5C40.599219 37 42.099609 36.699219 43.099609 36.699219 z"
    fill="#ffc23c" />
</svg>