<svg xmlns="http://www.w3.org/2000/svg" xmlns:xlink="http://www.w3.org/1999/xlink" viewBox="0 0 128 128" fill="#ffc23c">
  <path
    d="M89 2C73.8 2 61.5 14.300391 61 29.900391C60.6 44.400391 74.500781 63.5 82.800781 73.5C84.400781 75.4 86.6 76.400391 89 76.400391C91.4 76.400391 93.599219 75.3 95.199219 73.5C103.49922 63.4 117.5 44.400391 117 29.900391C116.5 14.300391 104.2 2 89 2 z M 52.730469 7.6191406C52.523438 7.6242187 52.312109 7.6492188 52.099609 7.6992188C34.099609 11.599219 19.3 23.3 11.5 40C5 54 4.2996094 69.800781 9.5996094 84.300781C14.899609 98.800781 25.499609 110.5 39.599609 117C47.399609 120.6 55.699609 122.5 64.099609 122.5C70.799609 122.5 77.5 121.3 84 119C98.6 113.7 110.19922 103.1 116.69922 89C119.49922 83 121.20039 76.699219 121.90039 70.199219C122.10039 68.599219 120.89922 67.100391 119.19922 66.900391C117.59922 66.700391 116.10039 67.899609 115.90039 69.599609C115.30039 75.399609 113.80078 81.1 111.30078 86.5C105.40078 99.1 95 108.60039 82 113.40039C69 118.10039 54.800781 117.49922 42.300781 111.69922C40.400781 110.79922 38.600781 109.79922 36.800781 108.69922C38.500781 108.59922 40.300391 108.09922 41.900391 107.19922C43.700391 106.19922 45.599219 104.99961 47.699219 103.59961C49.099219 102.59961 50.299219 101.30078 51.199219 99.800781C52.199219 98.000781 53.4 96.100391 54 93.900391C57.9 78.900391 44.9 78.3 44.5 75C44.1 71.3 48.900781 68.499609 51.800781 65.599609C54.700781 62.699609 55.599609 58.199609 54.099609 55.599609C49.299609 46.999609 37.900781 51.499219 36.800781 60.699219C36.200781 66.199219 32.899609 71.799219 30.099609 74.699219C27.299609 77.499219 21.800781 76.000391 20.300781 71.900391C18.600781 67.300391 24.499609 65.599219 23.599609 59.699219C23.399609 58.099219 21.699609 57.3 19.599609 57L12.699219 57.199219C13.399219 52.199219 14.899609 47.299219 17.099609 42.699219C23.899609 27.599219 37.200391 17.099609 53.400391 13.599609C55.000391 13.299609 56.099219 11.7 55.699219 10C55.436719 8.6 54.179688 7.5835938 52.730469 7.6191406 z M 89 20C94.5 20 99 24.5 99 30C99 35.5 94.5 40 89 40C83.5 40 79 35.5 79 30C79 24.5 83.5 20 89 20 z"
    fill="#ffc23c" />
</svg>